<mxfile host="app.diagrams.net" modified="2020-08-19T16:40:14.630Z" agent="5.0 (Windows NT 10.0; Win64; x64) AppleWebKit/537.36 (KHTML, like Gecko) Chrome/79.0.3945.117 Safari/537.36" etag="_8mVjskac62DdGwtq9A3" version="13.6.3" type="github">
  <diagram id="dOK8fGleZDZxnz4by578" name="Page-1">
    <mxGraphModel dx="1422" dy="794" grid="1" gridSize="10" guides="1" tooltips="1" connect="1" arrows="1" fold="1" page="1" pageScale="1" pageWidth="850" pageHeight="1100" math="0" shadow="0">
      <root>
        <mxCell id="0" />
        <mxCell id="1" parent="0" />
        <mxCell id="NktjRv0M6YxogWMJ7kmu-12" value="process" style="rounded=0;whiteSpace=wrap;html=1;" vertex="1" parent="1">
          <mxGeometry x="360" y="260" width="120" height="60" as="geometry" />
        </mxCell>
        <mxCell id="NktjRv0M6YxogWMJ7kmu-13" value="" style="endArrow=classic;html=1;" edge="1" parent="1">
          <mxGeometry width="50" height="50" relative="1" as="geometry">
            <mxPoint x="480" y="289.5" as="sourcePoint" />
            <mxPoint x="580" y="290" as="targetPoint" />
          </mxGeometry>
        </mxCell>
        <mxCell id="NktjRv0M6YxogWMJ7kmu-15" value="input&amp;nbsp;" style="text;html=1;align=center;verticalAlign=middle;resizable=0;points=[];autosize=1;" vertex="1" parent="1">
          <mxGeometry x="285" y="260" width="40" height="20" as="geometry" />
        </mxCell>
        <mxCell id="NktjRv0M6YxogWMJ7kmu-16" value="output" style="text;html=1;align=center;verticalAlign=middle;resizable=0;points=[];autosize=1;" vertex="1" parent="1">
          <mxGeometry x="490" y="260" width="50" height="20" as="geometry" />
        </mxCell>
        <mxCell id="NktjRv0M6YxogWMJ7kmu-17" value="according to some stored program or instructions" style="text;html=1;align=center;verticalAlign=middle;resizable=0;points=[];autosize=1;" vertex="1" parent="1">
          <mxGeometry x="285" y="210" width="280" height="20" as="geometry" />
        </mxCell>
        <mxCell id="NktjRv0M6YxogWMJ7kmu-18" value="" style="endArrow=classic;html=1;" edge="1" parent="1">
          <mxGeometry width="50" height="50" relative="1" as="geometry">
            <mxPoint x="260" y="290" as="sourcePoint" />
            <mxPoint x="360" y="289.5" as="targetPoint" />
            <Array as="points">
              <mxPoint x="330" y="289.5" />
            </Array>
          </mxGeometry>
        </mxCell>
      </root>
    </mxGraphModel>
  </diagram>
</mxfile>
